<svg xmlns="http://www.w3.org/2000/svg" id="Layer_1" x="0" y="0" viewBox="0 0 259 65.8" xml:space="preserve"><path d="M61.8 35.2V60H50.7V38.7c0-4.3-1.5-6.9-5.9-6.9-4 0-6.3 2.9-6.3 7.4V60H27.6V38.7c0-4.3-1.5-6.9-5.9-6.9-4 0-6.8 2.8-6.8 7.4V60H3.7V22.3h9.9l.9 3.6h.3c2.1-2.5 5.4-4.2 10.3-4.2 5.1 0 9 1.8 11.2 5.1h.2c2.7-3.4 6.9-5.2 11.2-5.1 8.4 0 14.1 5.2 14.1 13.5zM67.2 12c0-4 2.3-6.4 6.7-6.4S80.5 8 80.5 12s-2.4 6.5-6.7 6.5-6.6-2.4-6.6-6.5zm1 10.3h11.1V60H68.2V22.3zM85.8 6.7h11.1V60H85.8V6.7zm53.6 52.6v.7H126l-12.3-15.4V60h-10.4V6.7h10.4V36l12-13.7h13v.7l-15.4 17.1 16.1 19.2zm3.3-47.3c0-4 2.3-6.4 6.7-6.4s6.7 2.4 6.7 6.4-2.4 6.5-6.7 6.5-6.7-2.4-6.7-6.5zm1.1 10.3h11.1V60h-11.1V22.3zm17.5 0h9.9l.9 3.6h.3c2.1-2.5 5.4-4.2 10.3-4.2 8.4 0 14 5.2 14 13.5V60h-11.1V38.7c0-4.3-1.9-6.9-6.3-6.9-4 0-6.8 2.8-6.8 7.4V60h-11.1V22.3zm77.9 37v.7h-13.4l-12.3-15.4V60h-10.4V6.7h10.4V36l12-13.7h13v.7l-15.4 17.1 16.1 19.2zm3.3-5.1c0-4 2.2-6.4 6.5-6.4s6.5 2.5 6.5 6.4-2.4 6.5-6.5 6.5-6.5-2.5-6.5-6.5z"/></svg>