<svg xmlns="http://www.w3.org/2000/svg" xmlns:xlink="http://www.w3.org/1999/xlink" id="Layer_1" x="0px" y="0px" viewBox="0 0 259 65.8" style="enable-background:new 0 0 259 65.8;" xml:space="preserve"><g>	<path d="M61.8,35.2V60H50.7V38.7c0-4.3-1.5-6.9-5.9-6.9c-4,0-6.3,2.9-6.3,7.4V60H27.6V38.7c0-4.3-1.5-6.9-5.9-6.9  c-4,0-6.8,2.8-6.8,7.4V60H3.7V22.3h9.9l0.9,3.6h0.3c2.1-2.5,5.4-4.2,10.3-4.2c5.1,0,9,1.8,11.2,5.1h0.2c2.7-3.4,6.9-5.2,11.2-5.1  C56.1,21.7,61.8,26.9,61.8,35.2z"></path>	<path d="M67.2,12c0-4,2.3-6.4,6.7-6.4S80.5,8,80.5,12s-2.4,6.5-6.7,6.5S67.2,16.1,67.2,12z M68.2,22.3h11.1V60H68.2V22.3z"></path>	<path d="M85.8,6.7h11.1V60H85.8V6.7z"></path>	<path d="M139.4,59.3V60h-13.4l-12.3-15.4V60h-10.4V6.7h10.4V36l12-13.7h13V23l-15.4,17.1L139.4,59.3z"></path>	<path d="M142.7,12c0-4,2.3-6.4,6.7-6.4s6.7,2.4,6.7,6.4s-2.4,6.5-6.7,6.5S142.7,16.1,142.7,12z M143.8,22.3h11.1V60h-11.1V22.3z"></path>	<path d="M161.3,22.3h9.9l0.9,3.6h0.3c2.1-2.5,5.4-4.2,10.3-4.2c8.4,0,14,5.2,14,13.5V60h-11.1V38.7c0-4.3-1.9-6.9-6.3-6.9  c-4,0-6.8,2.8-6.8,7.4V60h-11.1V22.3z"></path>	<path d="M239.2,59.3V60h-13.4l-12.3-15.4V60h-10.4V6.7h10.4V36l12-13.7h13V23l-15.4,17.1L239.2,59.3z"></path>	<path d="M242.5,54.2c0-4,2.2-6.4,6.5-6.4s6.5,2.5,6.5,6.4s-2.4,6.5-6.5,6.5S242.5,58.2,242.5,54.2z"></path></g></svg>
